<?xml version="1.0" encoding="UTF-8"?>
<!DOCTYPE svg PUBLIC "-//W3C//DTD SVG 1.1//EN" "http://www.w3.org/Graphics/SVG/1.1/DTD/svg11.dtd">
<svg width="160mm" height="90mm" viewBox="0 0 16000 9000" version="1.1" baseProfile="tiny" xmlns="http://www.w3.org/2000/svg" stroke-width="28.222" stroke-linejoin="round" xml:space="preserve">
 <path fill="rgb(255,255,255)" stroke="none" d="M 8000,9012 L 0,9012 0,0 15999,0 15999,9012 8000,9012 Z"/>
 <path fill="none" stroke="rgb(179,179,179)" stroke-linejoin="round" d="M 6568,7204 L 1952,7204 1952,1860 11184,1860 11184,7204 6568,7204 Z"/>
 <path fill="none" stroke="rgb(179,179,179)" stroke-linejoin="round" d="M 11184,7203 L 1952,7203"/>
 <path fill="none" stroke="rgb(179,179,179)" stroke-linejoin="round" d="M 11184,6439 L 1952,6439"/>
 <path fill="none" stroke="rgb(179,179,179)" stroke-linejoin="round" d="M 11184,5675 L 1952,5675"/>
 <path fill="none" stroke="rgb(179,179,179)" stroke-linejoin="round" d="M 11184,4912 L 1952,4912"/>
 <path fill="none" stroke="rgb(179,179,179)" stroke-linejoin="round" d="M 11184,4149 L 1952,4149"/>
 <path fill="none" stroke="rgb(179,179,179)" stroke-linejoin="round" d="M 11184,3386 L 1952,3386"/>
 <path fill="none" stroke="rgb(179,179,179)" stroke-linejoin="round" d="M 11184,2622 L 1952,2622"/>
 <path fill="none" stroke="rgb(179,179,179)" stroke-linejoin="round" d="M 11184,1859 L 1952,1859"/>
 <path fill="none" stroke="rgb(179,179,179)" stroke-linejoin="round" d="M 1952,7353 L 1952,7203"/>
 <path fill="none" stroke="rgb(179,179,179)" stroke-linejoin="round" d="M 1952,7353 L 1952,7203"/>
 <path fill="none" stroke="rgb(179,179,179)" stroke-linejoin="round" d="M 4437,7353 L 4437,7203"/>
 <path fill="none" stroke="rgb(179,179,179)" stroke-linejoin="round" d="M 4437,7353 L 4437,7203"/>
 <path fill="none" stroke="rgb(179,179,179)" stroke-linejoin="round" d="M 6923,7353 L 6923,7203"/>
 <path fill="none" stroke="rgb(179,179,179)" stroke-linejoin="round" d="M 6923,7353 L 6923,7203"/>
 <path fill="none" stroke="rgb(179,179,179)" stroke-linejoin="round" d="M 9408,7353 L 9408,7203"/>
 <path fill="none" stroke="rgb(179,179,179)" stroke-linejoin="round" d="M 9408,7353 L 9408,7203"/>
 <path fill="none" stroke="rgb(179,179,179)" stroke-linejoin="round" d="M 1952,7203 L 11184,7203"/>
 <path fill="none" stroke="rgb(179,179,179)" stroke-linejoin="round" d="M 1802,7203 L 1952,7203"/>
 <path fill="none" stroke="rgb(179,179,179)" stroke-linejoin="round" d="M 1802,7203 L 1952,7203"/>
 <path fill="none" stroke="rgb(179,179,179)" stroke-linejoin="round" d="M 1802,6439 L 1952,6439"/>
 <path fill="none" stroke="rgb(179,179,179)" stroke-linejoin="round" d="M 1802,6439 L 1952,6439"/>
 <path fill="none" stroke="rgb(179,179,179)" stroke-linejoin="round" d="M 1802,5675 L 1952,5675"/>
 <path fill="none" stroke="rgb(179,179,179)" stroke-linejoin="round" d="M 1802,5675 L 1952,5675"/>
 <path fill="none" stroke="rgb(179,179,179)" stroke-linejoin="round" d="M 1802,4912 L 1952,4912"/>
 <path fill="none" stroke="rgb(179,179,179)" stroke-linejoin="round" d="M 1802,4912 L 1952,4912"/>
 <path fill="none" stroke="rgb(179,179,179)" stroke-linejoin="round" d="M 1802,4149 L 1952,4149"/>
 <path fill="none" stroke="rgb(179,179,179)" stroke-linejoin="round" d="M 1802,4149 L 1952,4149"/>
 <path fill="none" stroke="rgb(179,179,179)" stroke-linejoin="round" d="M 1802,3386 L 1952,3386"/>
 <path fill="none" stroke="rgb(179,179,179)" stroke-linejoin="round" d="M 1802,3386 L 1952,3386"/>
 <path fill="none" stroke="rgb(179,179,179)" stroke-linejoin="round" d="M 1802,2622 L 1952,2622"/>
 <path fill="none" stroke="rgb(179,179,179)" stroke-linejoin="round" d="M 1802,2622 L 1952,2622"/>
 <path fill="none" stroke="rgb(179,179,179)" stroke-linejoin="round" d="M 1802,1859 L 1952,1859"/>
 <path fill="none" stroke="rgb(179,179,179)" stroke-linejoin="round" d="M 1802,1859 L 1952,1859"/>
 <path fill="none" stroke="rgb(179,179,179)" stroke-linejoin="round" d="M 1952,7203 L 1952,1859"/>
 <path fill="none" stroke="rgb(0,69,134)" stroke-width="80" stroke-linejoin="round" d="M 2129,2775 L 3905,3233 5680,3997 7456,5217 9230,6439 11006,7203"/>
 <path fill="rgb(0,69,134)" stroke="none" d="M 2004,2650 L 2004,2900 2254,2900 2254,2650 2004,2650 Z"/>
 <path fill="none" stroke="rgb(0,69,134)" stroke-linejoin="round" d="M 2004,2650 L 2004,2900 2254,2900 2254,2650 2004,2650 Z"/>
 <path fill="rgb(0,69,134)" stroke="none" d="M 3780,3108 L 3780,3358 4030,3358 4030,3108 3780,3108 Z"/>
 <path fill="none" stroke="rgb(0,69,134)" stroke-linejoin="round" d="M 3780,3108 L 3780,3358 4030,3358 4030,3108 3780,3108 Z"/>
 <path fill="rgb(0,69,134)" stroke="none" d="M 5555,3872 L 5555,4122 5805,4122 5805,3872 5555,3872 Z"/>
 <path fill="none" stroke="rgb(0,69,134)" stroke-linejoin="round" d="M 5555,3872 L 5555,4122 5805,4122 5805,3872 5555,3872 Z"/>
 <path fill="rgb(0,69,134)" stroke="none" d="M 7331,5092 L 7331,5342 7581,5342 7581,5092 7331,5092 Z"/>
 <path fill="none" stroke="rgb(0,69,134)" stroke-linejoin="round" d="M 7331,5092 L 7331,5342 7581,5342 7581,5092 7331,5092 Z"/>
 <path fill="rgb(0,69,134)" stroke="none" d="M 9105,6314 L 9105,6564 9355,6564 9355,6314 9105,6314 Z"/>
 <path fill="none" stroke="rgb(0,69,134)" stroke-linejoin="round" d="M 9105,6314 L 9105,6564 9355,6564 9355,6314 9105,6314 Z"/>
 <path fill="rgb(0,69,134)" stroke="none" d="M 10881,7078 L 10881,7328 11131,7328 11131,7078 10881,7078 Z"/>
 <path fill="none" stroke="rgb(0,69,134)" stroke-linejoin="round" d="M 10881,7078 L 10881,7328 11131,7328 11131,7078 10881,7078 Z"/>
 <path fill="none" stroke="rgb(255,66,14)" stroke-width="80" stroke-linejoin="round" d="M 2129,2775 L 3905,3233 5680,2775 7456,3997 9230,5981 11006,7203"/>
 <path fill="rgb(255,66,14)" stroke="none" d="M 2004,2775 L 2129,2900 2254,2775 2129,2650 2004,2775 Z"/>
 <path fill="none" stroke="rgb(255,66,14)" stroke-linejoin="round" d="M 2004,2775 L 2129,2900 2254,2775 2129,2650 2004,2775 Z"/>
 <path fill="rgb(255,66,14)" stroke="none" d="M 3780,3233 L 3905,3358 4030,3233 3905,3108 3780,3233 Z"/>
 <path fill="none" stroke="rgb(255,66,14)" stroke-linejoin="round" d="M 3780,3233 L 3905,3358 4030,3233 3905,3108 3780,3233 Z"/>
 <path fill="rgb(255,66,14)" stroke="none" d="M 5555,2775 L 5680,2900 5805,2775 5680,2650 5555,2775 Z"/>
 <path fill="none" stroke="rgb(255,66,14)" stroke-linejoin="round" d="M 5555,2775 L 5680,2900 5805,2775 5680,2650 5555,2775 Z"/>
 <path fill="rgb(255,66,14)" stroke="none" d="M 7331,3997 L 7456,4122 7581,3997 7456,3872 7331,3997 Z"/>
 <path fill="none" stroke="rgb(255,66,14)" stroke-linejoin="round" d="M 7331,3997 L 7456,4122 7581,3997 7456,3872 7331,3997 Z"/>
 <path fill="rgb(255,66,14)" stroke="none" d="M 9105,5981 L 9230,6106 9355,5981 9230,5856 9105,5981 Z"/>
 <path fill="none" stroke="rgb(255,66,14)" stroke-linejoin="round" d="M 9105,5981 L 9230,6106 9355,5981 9230,5856 9105,5981 Z"/>
 <path fill="rgb(255,66,14)" stroke="none" d="M 10881,7203 L 11006,7328 11131,7203 11006,7078 10881,7203 Z"/>
 <path fill="none" stroke="rgb(255,66,14)" stroke-linejoin="round" d="M 10881,7203 L 11006,7328 11131,7203 11006,7078 10881,7203 Z"/>
 <text class="TextShape"><tspan class="TextParagraph" font-family="Liberation Sans" font-size="353px" font-weight="400"><tspan class="TextPosition" x="1467" y="7771"><tspan fill="rgb(0,0,0)" stroke="none">05/09/14</tspan></tspan></tspan></text>
 <text class="TextShape"><tspan class="TextParagraph" font-family="Liberation Sans" font-size="353px" font-weight="400"><tspan class="TextPosition" x="3953" y="7771"><tspan fill="rgb(0,0,0)" stroke="none">12/09/14</tspan></tspan></tspan></text>
 <text class="TextShape"><tspan class="TextParagraph" font-family="Liberation Sans" font-size="353px" font-weight="400"><tspan class="TextPosition" x="6439" y="7771"><tspan fill="rgb(0,0,0)" stroke="none">19/09/14</tspan></tspan></tspan></text>
 <text class="TextShape"><tspan class="TextParagraph" font-family="Liberation Sans" font-size="353px" font-weight="400"><tspan class="TextPosition" x="8924" y="7771"><tspan fill="rgb(0,0,0)" stroke="none">26/09/14</tspan></tspan></tspan></text>
 <text class="TextShape"><tspan class="TextParagraph" font-family="Liberation Sans" font-size="353px" font-weight="400"><tspan class="TextPosition" x="1517" y="7324"><tspan fill="rgb(0,0,0)" stroke="none">0</tspan></tspan></tspan></text>
 <text class="TextShape"><tspan class="TextParagraph" font-family="Liberation Sans" font-size="353px" font-weight="400"><tspan class="TextPosition" x="1517" y="6560"><tspan fill="rgb(0,0,0)" stroke="none">5</tspan></tspan></tspan></text>
 <text class="TextShape"><tspan class="TextParagraph" font-family="Liberation Sans" font-size="353px" font-weight="400"><tspan class="TextPosition" x="1332" y="5796"><tspan fill="rgb(0,0,0)" stroke="none">10</tspan></tspan></tspan></text>
 <text class="TextShape"><tspan class="TextParagraph" font-family="Liberation Sans" font-size="353px" font-weight="400"><tspan class="TextPosition" x="1332" y="5033"><tspan fill="rgb(0,0,0)" stroke="none">15</tspan></tspan></tspan></text>
 <text class="TextShape"><tspan class="TextParagraph" font-family="Liberation Sans" font-size="353px" font-weight="400"><tspan class="TextPosition" x="1332" y="4269"><tspan fill="rgb(0,0,0)" stroke="none">20</tspan></tspan></tspan></text>
 <text class="TextShape"><tspan class="TextParagraph" font-family="Liberation Sans" font-size="353px" font-weight="400"><tspan class="TextPosition" x="1332" y="3506"><tspan fill="rgb(0,0,0)" stroke="none">25</tspan></tspan></tspan></text>
 <text class="TextShape"><tspan class="TextParagraph" font-family="Liberation Sans" font-size="353px" font-weight="400"><tspan class="TextPosition" x="1332" y="2742"><tspan fill="rgb(0,0,0)" stroke="none">30</tspan></tspan></tspan></text>
 <text class="TextShape"><tspan class="TextParagraph" font-family="Liberation Sans" font-size="353px" font-weight="400"><tspan class="TextPosition" x="1332" y="1979"><tspan fill="rgb(0,0,0)" stroke="none">35</tspan></tspan></tspan></text>
 <text class="TextShape"><tspan class="TextParagraph" font-family="Liberation Sans" font-size="459px" font-weight="400"><tspan class="TextPosition" x="6412" y="877"><tspan fill="rgb(0,0,0)" stroke="none">Burndown Chart</tspan></tspan></tspan></text>
 <path fill="none" stroke="rgb(0,69,134)" stroke-width="80" stroke-linejoin="round" d="M 11940,4256 L 12740,4256"/>
 <path fill="rgb(0,69,134)" stroke="none" d="M 12234,4151 L 12234,4361 12445,4361 12445,4151 12234,4151 Z"/>
 <path fill="none" stroke="rgb(0,69,134)" stroke-linejoin="round" d="M 12234,4151 L 12234,4361 12445,4361 12445,4151 12234,4151 Z"/>
 <path fill="none" stroke="rgb(255,66,14)" stroke-width="80" stroke-linejoin="round" d="M 11940,4753 L 12740,4753"/>
 <path fill="rgb(255,66,14)" stroke="none" d="M 12234,4753 L 12340,4858 12445,4753 12340,4648 12234,4753 Z"/>
 <path fill="none" stroke="rgb(255,66,14)" stroke-linejoin="round" d="M 12234,4753 L 12340,4858 12445,4753 12340,4648 12234,4753 Z"/>
 <text class="TextShape"><tspan class="TextParagraph" font-family="Liberation Sans" font-size="353px" font-weight="400"><tspan class="TextPosition" x="12840" y="4376"><tspan fill="rgb(0,0,0)" stroke="none">Puntos Estimados</tspan></tspan></tspan></text>
 <text class="TextShape"><tspan class="TextParagraph" font-family="Liberation Sans" font-size="353px" font-weight="400"><tspan class="TextPosition" x="12840" y="4873"><tspan fill="rgb(0,0,0)" stroke="none">Puntos Reales</tspan></tspan></tspan></text>
 <text class="TextShape"><tspan class="TextParagraph" font-family="Liberation Sans" font-size="318px" font-weight="400"><tspan class="TextPosition" x="5808" y="8418"><tspan fill="rgb(0,0,0)" stroke="none">Fecha</tspan></tspan></tspan></text>
 <text class="TextShape"><tspan class="TextParagraph" font-family="Liberation Sans" font-size="318px" font-weight="400"><tspan class="TextPosition" x="837" y="5258" transform="translate(837,5258) rotate(-90) translate(-837,-5258)"><tspan fill="rgb(0,0,0)" stroke="none">Puntos</tspan></tspan></tspan></text>
</svg>